<svg id="Solid" height="512" viewBox="0 0 512 512" width="512" xmlns="http://www.w3.org/2000/svg"><g><g><path d="m128 40h16v88h-16z"/><path d="m168 40h16v88h-16z"/><path d="m208 40h16v88h-16z"/></g><g><path d="m79.959 446.087-7.259-249.262a31.015 31.015 0 0 1 -17.373-.659l-7.286 249.921c0 .083-.006.166-.011.25-.02.338-.03.68-.03 1.023 0 9.175 7.178 16.64 16 16.64s16-7.465 16-16.64c0-.343-.01-.685-.03-1.023-.005-.084-.009-.167-.011-.25z"/><path d="m142.6 194.2a29.334 29.334 0 0 1 -14.6-25.56v-25.793a178.13 178.13 0 0 0 -38.3 88.2l1.761 60.419c.28 1.414.581 2.842.9 4.255.592 2.65 1.253 5.321 1.965 7.939a176.568 176.568 0 0 0 51.408 84.156l1.782-61.135a137.9 137.9 0 0 1 -4.916-132.481z"/><path d="m232 125.217a123.758 123.758 0 0 1 24-2.337c49.135 0 93.759 29.212 115.132 74.88h43.3a176.094 176.094 0 0 0 -56.243-80.45 163.037 163.037 0 0 0 -126.189-34.259z"/><path d="m420.844 72 10.198 18.646 18.647 10.198-18.647 10.198-10.198 18.647-10.198-18.647-18.646-10.198 18.646-10.198z"/><ellipse cx="65.143" cy="114.56" rx="33.143" ry="66.56"/><path d="m148.606 289.143 2.127-73a121.421 121.421 0 0 0 -2.127 73z"/><path d="m341.4 264.32 25.372 197.88a2.036 2.036 0 0 0 1.983 1.8h86.2a2.025 2.025 0 0 0 1.99-1.873l19.015-197.807zm98.541 160.615-15.89-1.87 16-136 15.89 1.87z"/><path d="m336 214.4v7.767l3.271 25.513h138.289l2.44-25.375v-7.905z"/><path d="m256 389.12a123.99 123.99 0 0 1 -50-10.552l1.3 44.7a162.732 162.732 0 0 0 136.033-17.983l-5.967-46.541a125.484 125.484 0 0 1 -81.366 30.376z"/><path d="m191.959 446.087-7.235-248.327h-17.448l-7.235 248.327c0 .083-.006.166-.011.25-.02.338-.03.68-.03 1.023 0 9.175 7.178 16.64 16 16.64s16-7.465 16-16.64c0-.343-.01-.685-.03-1.023-.005-.084-.009-.167-.011-.25z"/><g><path d="m272.023 308.8-3.179-5.813-3.178 5.813a8.007 8.007 0 0 1 -3.181 3.181l-5.813 3.179 5.813 3.178a8.007 8.007 0 0 1 3.181 3.181l3.178 5.813 3.179-5.813a8.007 8.007 0 0 1 3.181-3.181l5.813-3.178-5.813-3.179a8.007 8.007 0 0 1 -3.181-3.181z"/><path d="m320 222.72v-16.64a8.165 8.165 0 0 1 8-8.32h25.025c-19.853-35.76-56.703-58.24-97.025-58.24a107.958 107.958 0 0 0 -32 4.821v24.3c0 14.385-10.081 26.366-23.281 28.706l4.739 162.626a108.592 108.592 0 0 0 50.542 12.507 110.233 110.233 0 0 0 78.807-33.716l-14.737-114.945a8.581 8.581 0 0 1 -.07-1.099zm-18.472 99.455-16.591 9.073-9.074 16.591a8 8 0 0 1 -14.038 0l-9.073-16.591-16.591-9.073a8 8 0 0 1 0-14.038l16.591-9.074 9.073-16.591a8 8 0 0 1 14.038 0l9.074 16.591 16.591 9.074a8 8 0 0 1 0 14.038z"/></g><path d="m208 168.64v-24.64h-64v24.64a12.261 12.261 0 0 0 12 12.48h40a12.261 12.261 0 0 0 12-12.48z"/></g></g></svg>