<svg id="Layer_1" enable-background="new 0 0 512 512" height="512" viewBox="0 0 512 512" width="512" xmlns="http://www.w3.org/2000/svg"><g><path d="m351.333 143.533c0-8.284-6.716-15-15-15h-65.333v-34.266h17.134c8.284 0 15-6.716 15-15v-17.134h97.466c8.284 0 15-6.716 15-15s-6.716-15-15-15h-97.466v-17.133c0-8.284-6.716-15-15-15h-64.267c-8.284 0-15 6.716-15 15v64.267c0 8.284 6.716 15 15 15h17.133v34.267h-65.333c-8.284 0-15 6.716-15 15v19.266h190.667v-19.267z"/><path d="m400.6 192.8h-289.2c-8.284 0-15 6.716-15 15v289.2c0 8.284 6.716 15 15 15h289.2c8.284 0 15-6.716 15-15v-289.2c0-8.284-6.716-15-15-15zm-49.267 239.933c0 8.284-6.716 15-15 15h-160.666c-8.284 0-15-6.716-15-15v-160.666c0-8.284 6.716-15 15-15h160.667c8.284 0 15 6.716 15 15v160.666z"/><path d="m190.667 287.067h130.667v130.667h-130.667z"/></g></svg>