<svg id="Capa_1" enable-background="new 0 0 512 512" height="512" viewBox="0 0 512 512" width="512" xmlns="http://www.w3.org/2000/svg"><g fill="rgb(0,0,0)"><path d="m297.576 417-30.649-306.493c-.767-7.668-7.22-13.507-14.926-13.507-10 0 2.669 0-128 0-7.706 0-14.159 5.839-14.926 13.507l-30.649 306.493z"/><path d="m300.961 447h-225.919l-5.928 48.167c-1.101 8.937 5.879 16.833 14.887 16.833h208c9.004 0 15.989-7.892 14.888-16.833z"/><path d="m243.775 66.964-8.974-54.405c-1.194-7.245-7.458-12.559-14.8-12.559h-64c-7.342 0-13.605 5.314-14.8 12.559l-8.974 54.405z"/><path d="m377.771 191c-3.998-10.453-4.752-11.299-4.752-15.255.025-.808 0-1.12 0-175.745h-17.018c-8.284 0-15 6.716-15 15 0 171.255-.495 162.651 1.073 166.571 31.138 77.846 46.927 159.829 46.927 243.673v71.756c0 8.284 6.716 15 15 15s15-6.716 15-15v-71.756c0-80.325-13.869-159.015-41.231-234.244z"/><path d="m403.019 190.713c22.459-2.504 39.982-21.597 39.982-44.713v-101c0-23.116-17.522-42.209-39.982-44.713z"/></g></svg>